<svg width="38" height="38" viewBox="0 0 38 38" fill="none" xmlns="http://www.w3.org/2000/svg">
<path d="M18.9994 0.666748C9.06085 0.666748 0.666016 9.06158 0.666016 19.0001C0.666016 28.9386 9.06085 37.3334 18.9994 37.3334C28.9379 37.3334 37.3327 28.9386 37.3327 19.0001C37.3327 9.06158 28.9379 0.666748 18.9994 0.666748ZM18.9994 9.83342C22.1655 9.83342 24.4994 12.1654 24.4994 15.3334C24.4994 18.5014 22.1655 20.8334 18.9994 20.8334C15.835 20.8334 13.4994 18.5014 13.4994 15.3334C13.4994 12.1654 15.835 9.83342 18.9994 9.83342ZM9.63835 27.7487C11.2829 25.3287 14.0255 23.7154 17.166 23.7154H20.8327C23.975 23.7154 26.7159 25.3287 28.3604 27.7487C26.0174 30.2567 22.6935 31.8334 18.9994 31.8334C15.3052 31.8334 11.9814 30.2567 9.63835 27.7487Z" fill="#C2C6CC"/>
</svg>
