<svg width="23" height="26" viewBox="0 0 23 26" fill="none" xmlns="http://www.w3.org/2000/svg">
<path d="M2.96412 24.8599L21.439 14.514C21.7104 14.362 21.9364 14.1404 22.0937 13.872C22.2511 13.6036 22.334 13.2981 22.334 12.987C22.334 12.6759 22.2511 12.3704 22.0937 12.102C21.9364 11.8337 21.7104 11.612 21.439 11.46L2.96412 1.11403C2.65326 0.93993 2.29667 0.864858 1.942 0.898854C1.58733 0.93285 1.25149 1.07429 0.979361 1.30428C0.707235 1.53426 0.511793 1.84183 0.419157 2.18588C0.326521 2.52992 0.341106 2.89404 0.460964 3.22957L3.94565 12.9869L0.460963 22.7445C0.392369 22.9355 0.357182 23.137 0.356946 23.34C0.358682 23.6447 0.439815 23.9436 0.592343 24.2074C0.744874 24.4711 0.963527 24.6905 1.22673 24.844C1.48994 24.9974 1.7886 25.0796 2.09326 25.0824C2.39791 25.0852 2.69804 25.0085 2.96401 24.8599L2.96412 24.8599ZM5.49156 13.862L11.8749 13.862C12.107 13.862 12.3295 13.7698 12.4936 13.6057C12.6577 13.4416 12.7499 13.2191 12.7499 12.987C12.7499 12.755 12.6577 12.5324 12.4936 12.3683C12.3295 12.2042 12.107 12.112 11.8749 12.112L5.49156 12.112L2.1099 2.64146L20.5841 12.987L2.10935 23.3321L5.49156 13.862Z" fill="white"/>
</svg>
