<svg width="128" height="204" viewBox="0 0 128 204" fill="none" xmlns="http://www.w3.org/2000/svg">
<path d="M108.625 0H19.375C8.85625 0 0.25 8.60625 0.25 19.125V184.875C0.25 195.394 8.85625 204 19.375 204H108.625C119.144 204 127.75 195.394 127.75 184.875V19.125C127.75 8.60625 119.144 0 108.625 0ZM38.5 9.5625H89.5V15.9375H38.5V9.5625ZM64 191.25C60.6185 191.25 57.3755 189.907 54.9844 187.516C52.5933 185.125 51.25 181.882 51.25 178.5C51.25 175.118 52.5933 171.875 54.9844 169.484C57.3755 167.093 60.6185 165.75 64 165.75C67.3815 165.75 70.6245 167.093 73.0156 169.484C75.4067 171.875 76.75 175.118 76.75 178.5C76.75 181.882 75.4067 185.125 73.0156 187.516C70.6245 189.907 67.3815 191.25 64 191.25ZM115 153H13V25.5H115V153Z" fill="#9A9A9A"/>
</svg>
